<?xml version="1.0" standalone="no"?>
<!DOCTYPE svg PUBLIC "-//W3C//DTD SVG 20010904//EN"
 "http://www.w3.org/TR/2001/REC-SVG-20010904/DTD/svg10.dtd">
<svg version="1.0" xmlns="http://www.w3.org/2000/svg"
 width="252.000000pt" height="252.000000pt" viewBox="0 0 252.000000 252.000000"
 preserveAspectRatio="xMidYMid meet">
<metadata>
Created by potrace 1.11, written by Peter Selinger 2001-2013
</metadata>
<g transform="translate(0.000000,252.000000) scale(0.100000,-0.100000)"
fill="#000000" stroke="none">
<path d="M164 2491 c-47 -21 -106 -76 -131 -124 -17 -30 -18 -100 -21 -1086
-3 -1176 -6 -1115 66 -1189 20 -20 53 -46 72 -57 34 -20 54 -20 1105 -20
l1070 0 48 24 c55 27 112 95 127 152 7 24 9 399 8 1091 -3 1032 -3 1054 -23
1087 -31 54 -55 79 -104 109 l-46 27 -1065 2 c-1020 2 -1067 2 -1106 -16z"/>
</g>
</svg>
